<svg id="Layer_1" data-name="Layer 1" xmlns="http://www.w3.org/2000/svg" viewBox="0 0 261.47 133.22"><defs><style>.cls-1{fill:#8faad8;}.cls-2{fill:#fff;stroke:#fff;stroke-miterlimit:10;stroke-width:0.5px;}</style></defs><title>SiiSU Logo light blue and white</title><path class="cls-1" d="M31.15,81.68a26.37,26.37,0,0,1-10.55-7l1.8-2.4a25.51,25.51,0,0,0,9.75,6.55A35,35,0,0,0,45.5,81.38q10.5,0,15.85-4.15A12.9,12.9,0,0,0,66.7,66.58a11.42,11.42,0,0,0-2.8-8,17.61,17.61,0,0,0-6.9-4.6,96.22,96.22,0,0,0-11.2-3.25A104.85,104.85,0,0,1,33.6,47a19.66,19.66,0,0,1-7.8-5.5q-3.19-3.7-3.2-9.9a16.48,16.48,0,0,1,2.6-9,18,18,0,0,1,8-6.55A32.13,32.13,0,0,1,46.5,13.58a38.32,38.32,0,0,1,11.25,1.7A29.45,29.45,0,0,1,67.2,20l-1.5,2.7a30.39,30.39,0,0,0-9.15-4.55,33.85,33.85,0,0,0-9.95-1.55q-10.2,0-15.45,4.25A13.26,13.26,0,0,0,25.9,31.58a11.45,11.45,0,0,0,2.85,8.15,18.69,18.69,0,0,0,7,4.65,92.91,92.91,0,0,0,11.15,3.3,111.14,111.14,0,0,1,12.2,3.65,19,19,0,0,1,7.75,5.4Q70,60.38,70,66.48a16.2,16.2,0,0,1-2.65,9A17.8,17.8,0,0,1,59.2,82a34,34,0,0,1-13.6,2.4A39.09,39.09,0,0,1,31.15,81.68Z"/><path class="cls-1" d="M81.15,17.53a3,3,0,0,1-1-2.25,3.25,3.25,0,0,1,3.3-3.3,3.24,3.24,0,0,1,2.3.95,3,3,0,0,1,1,2.25,3.15,3.15,0,0,1-1,2.3,3.13,3.13,0,0,1-2.3,1A3.27,3.27,0,0,1,81.15,17.53Zm.7,14.55h3.3V84h-3.3Z"/><path class="cls-1" d="M101.34,17.53a3,3,0,0,1-1-2.25,3.25,3.25,0,0,1,3.3-3.3,3.26,3.26,0,0,1,2.3.95,3,3,0,0,1,1,2.25,3.15,3.15,0,0,1-1,2.3,3.15,3.15,0,0,1-2.3,1A3.26,3.26,0,0,1,101.34,17.53Zm.7,14.55h3.3V84H102Z"/><path class="cls-1" d="M127.74,81.68a26.3,26.3,0,0,1-10.55-7l1.8-2.4a25.36,25.36,0,0,0,9.75,6.55,35,35,0,0,0,13.35,2.55q10.5,0,15.85-4.15a12.9,12.9,0,0,0,5.35-10.65,11.42,11.42,0,0,0-2.8-8,17.75,17.75,0,0,0-6.9-4.6,96.82,96.82,0,0,0-11.2-3.25,104.24,104.24,0,0,1-12.2-3.7,19.52,19.52,0,0,1-7.8-5.5q-3.19-3.7-3.2-9.9a16.48,16.48,0,0,1,2.6-9,17.85,17.85,0,0,1,8-6.55,32.13,32.13,0,0,1,13.35-2.45,38.32,38.32,0,0,1,11.25,1.7,29.45,29.45,0,0,1,9.45,4.7l-1.5,2.7a30.39,30.39,0,0,0-9.15-4.55,33.9,33.9,0,0,0-9.95-1.55q-10.2,0-15.45,4.25a13.26,13.26,0,0,0-5.25,10.75,11.45,11.45,0,0,0,2.85,8.15,18.61,18.61,0,0,0,7,4.65,92.35,92.35,0,0,0,11.15,3.3,111.82,111.82,0,0,1,12.2,3.65,19,19,0,0,1,7.75,5.4q3.15,3.65,3.15,9.75a16.2,16.2,0,0,1-2.65,9,17.85,17.85,0,0,1-8.15,6.5,34,34,0,0,1-13.6,2.4A39,39,0,0,1,127.74,81.68Z"/><path class="cls-1" d="M185.62,76.78q-7.26-7.61-7.25-22.3V14h3.4v40.4q0,13.4,6.2,20.15t17.9,6.75q11.59,0,17.85-6.75T230,54.38V14h3.3v40.5q0,14.7-7.2,22.3t-20.2,7.6Q192.86,84.38,185.62,76.78Z"/><path class="cls-2" d="M21.3,116.7H14.43L12.92,120H11.85l5.48-11.82h1.05L23.89,120h-1.1Zm-.42-.88-3-6.59-3,6.59Z"/><path class="cls-2" d="M40,120l-2.81-3.88a9,9,0,0,1-1,.06H32.79V120H31.74V108.16h4.39a5.44,5.44,0,0,1,3.56,1.06,3.6,3.6,0,0,1,1.29,3,3.73,3.73,0,0,1-.73,2.34,4,4,0,0,1-2.06,1.37l3,4.1Zm-1.06-5.51a2.83,2.83,0,0,0,1-2.3,2.78,2.78,0,0,0-1-2.29,4.41,4.41,0,0,0-2.84-.8h-3.3v6.2h3.3A4.35,4.35,0,0,0,38.93,114.47Z"/><path class="cls-2" d="M52.63,119.08v.9H44.27V108.16h8.1v.92h-7v4.45h6.3v.91h-6.3v4.64Z"/><path class="cls-2" d="M63.9,114.1h1v4.47A5.67,5.67,0,0,1,63,119.7a7.09,7.09,0,0,1-2.37.38,6.73,6.73,0,0,1-3.25-.78,5.85,5.85,0,0,1-3.09-5.24,5.83,5.83,0,0,1,3.08-5.22,6.51,6.51,0,0,1,3.22-.79,7.07,7.07,0,0,1,2.49.42,4.94,4.94,0,0,1,1.9,1.24l-.67.71A5.06,5.06,0,0,0,60.6,109a5.5,5.5,0,0,0-2.69.66A4.84,4.84,0,0,0,56,111.48a5,5,0,0,0-.68,2.58,5.08,5.08,0,0,0,.68,2.59,4.89,4.89,0,0,0,1.89,1.83,5.56,5.56,0,0,0,2.7.66,5.21,5.21,0,0,0,3.28-1Z"/><path class="cls-2" d="M69.7,118.77A5.18,5.18,0,0,1,68.41,115v-6.82h1v6.78a4.45,4.45,0,0,0,1,3.14,4.31,4.31,0,0,0,5.65,0,4.44,4.44,0,0,0,1-3.15v-6.78h1V115a5.22,5.22,0,0,1-1.28,3.79,5.53,5.53,0,0,1-7.15,0Z"/><path class="cls-2" d="M82.1,108.16h1.05v10.92H90v.9H82.1Z"/><path class="cls-2" d="M101.27,116.7H94.41L92.9,120H91.82l5.49-11.82h1l5.5,11.82h-1.09Zm-.42-.88-3-6.59-3,6.59Z"/><path class="cls-2" d="M107.15,109.08h-4.28v-.92h9.62v.92H108.2V120h-1Z"/><path class="cls-2" d="M116.4,119.3a6,6,0,0,1,0-10.46,6.84,6.84,0,0,1,6.38,0A5.91,5.91,0,0,1,125,111a6.14,6.14,0,0,1,0,6.13,5.94,5.94,0,0,1-2.25,2.17,6.91,6.91,0,0,1-6.38,0Zm5.85-.81a4.81,4.81,0,0,0,1.87-1.82,5.29,5.29,0,0,0,0-5.19,4.88,4.88,0,0,0-1.87-1.82,5.67,5.67,0,0,0-5.31,0,4.9,4.9,0,0,0-1.85,1.82,5,5,0,0,0-.69,2.6,5,5,0,0,0,.69,2.59,4.76,4.76,0,0,0,1.85,1.82,5.75,5.75,0,0,0,5.31,0Z"/><path class="cls-2" d="M137.17,120l-2.82-3.88a8.74,8.74,0,0,1-1,.06H130V120h-1.05V108.16h4.38a5.42,5.42,0,0,1,3.56,1.06,3.58,3.58,0,0,1,1.3,3,3.79,3.79,0,0,1-.73,2.34,4,4,0,0,1-2.07,1.37l3,4.1Zm-1.06-5.51a2.83,2.83,0,0,0,1-2.3,2.78,2.78,0,0,0-1-2.29,4.42,4.42,0,0,0-2.85-.8H130v6.2h3.29A4.36,4.36,0,0,0,136.11,114.47Z"/><path class="cls-2" d="M145.51,116.1V120h-1V116.1l-4.91-7.94h1.15l4.31,6.91,4.3-6.91h1.12Z"/><path class="cls-2" d="M159,119.64a5.21,5.21,0,0,1-1.9-1.13l.49-.8a4.48,4.48,0,0,0,1.72,1.05,6.27,6.27,0,0,0,2.25.4,4.14,4.14,0,0,0,2.48-.61,1.87,1.87,0,0,0,.83-1.59,1.63,1.63,0,0,0-.45-1.21,3,3,0,0,0-1.12-.69,14.09,14.09,0,0,0-1.79-.5,16.85,16.85,0,0,1-2.12-.62A3.47,3.47,0,0,1,158,113a2.52,2.52,0,0,1-.57-1.73,2.88,2.88,0,0,1,1.12-2.32,5,5,0,0,1,3.21-.9,7.39,7.39,0,0,1,2,.27,5,5,0,0,1,1.66.8L165,110a5.3,5.3,0,0,0-3.27-1,4,4,0,0,0-2.44.63,1.93,1.93,0,0,0-.82,1.61,1.63,1.63,0,0,0,.45,1.21,3,3,0,0,0,1.1.69,16.1,16.1,0,0,0,1.83.52,17.14,17.14,0,0,1,2.11.62,3.35,3.35,0,0,1,1.37.93,2.45,2.45,0,0,1,.55,1.68,2.8,2.8,0,0,1-1.13,2.32,5.14,5.14,0,0,1-3.26.89A7.2,7.2,0,0,1,159,119.64Z"/><path class="cls-2" d="M171,119.3a6,6,0,0,1,0-10.46,6.84,6.84,0,0,1,6.38,0,6,6,0,0,1,0,10.46,6.91,6.91,0,0,1-6.38,0Zm5.84-.81a4.68,4.68,0,0,0,1.87-1.82,5.22,5.22,0,0,0,0-5.19,4.74,4.74,0,0,0-1.87-1.82,5.65,5.65,0,0,0-5.3,0,5,5,0,0,0-1.86,1.82,5.12,5.12,0,0,0-.68,2.6,5.06,5.06,0,0,0,.68,2.59,4.85,4.85,0,0,0,1.86,1.82,5.73,5.73,0,0,0,5.3,0Z"/><path class="cls-2" d="M183.49,108.16h1v10.92h6.81v.9h-7.86Z"/><path class="cls-2" d="M194.29,118.77A5.18,5.18,0,0,1,193,115v-6.82h1.05v6.78a4.45,4.45,0,0,0,1,3.14,4.32,4.32,0,0,0,5.66,0,4.48,4.48,0,0,0,1-3.15v-6.78h1.05V115a5.18,5.18,0,0,1-1.28,3.79,4.73,4.73,0,0,1-3.57,1.31A4.78,4.78,0,0,1,194.29,118.77Z"/><path class="cls-2" d="M209.24,109.08H205v-.92h9.62v.92h-4.28V120h-1Z"/><path class="cls-2" d="M216.86,108.16h1V120h-1Z"/><path class="cls-2" d="M224.06,119.3a6,6,0,0,1,0-10.46,6.86,6.86,0,0,1,6.39,0,6,6,0,0,1,0,10.46,6.93,6.93,0,0,1-6.39,0Zm5.85-.81a4.74,4.74,0,0,0,1.87-1.82,5.29,5.29,0,0,0,0-5.19,4.81,4.81,0,0,0-1.87-1.82,5.37,5.37,0,0,0-2.65-.66,5.29,5.29,0,0,0-2.65.66,4.92,4.92,0,0,0-1.86,1.82,5.12,5.12,0,0,0-.68,2.6,5.06,5.06,0,0,0,.68,2.59,4.78,4.78,0,0,0,1.86,1.82,5.39,5.39,0,0,0,2.65.65A5.47,5.47,0,0,0,229.91,118.49Z"/><path class="cls-2" d="M246.47,108.16V120h-.88l-8-10v10h-1V108.16h.88l7.94,10v-10Z"/></svg>